<svg data-name="Layer 1" xmlns="http://www.w3.org/2000/svg" width="190.91" height="73.19" viewBox="0 0 190.91 73.19"><title>Artboard 1</title><path d="M30.64 30.42h-8l-.28-14.22-3.24 14.22h-7L8.86 16.2l-.29 14.22h-8L2 5.58h10.46l3.13 13.5 3.17-13.5h10.43zM51.52 30.42h-18V5.58h17.64V12h-9.54v2.7h9v6.37h-9v2.88h9.9zM72.4 30.42h-18V5.58H72V12h-9.5v2.7h9v6.37h-9v2.88h9.9zM95.11 11.92h-5.87v18.5h-8.13v-18.5h-5.83V5.58h19.83zM116.75 11.92h-5.87v18.5h-8.13v-18.5h-5.84V5.58h19.83zM139.28 11.92h-5.87v18.5h-8.14v-18.5h-5.83V5.58h19.83zM166.28 19.8c0 4-.9 6.3-2.7 8.1s-4.68 2.92-8.64 2.92-6.84-1.12-8.64-2.92-2.7-4.14-2.7-8.1V5.58h8.17v14.58a3.39 3.39 0 0 0 .83 2.7 3.49 3.49 0 0 0 4.68 0 3.45 3.45 0 0 0 .79-2.7V5.58h8.21zM187.41 20.7a10.84 10.84 0 0 1-6.91 2h-2.66v7.74h-8.14V5.58h10.8a10.84 10.84 0 0 1 6.91 2 7.94 7.94 0 0 1 2.81 6.59 7.91 7.91 0 0 1-2.81 6.53zm-6.3-8.53a3 3 0 0 0-2-.47h-1.31v4.86h1.33a3.24 3.24 0 0 0 2-.43 2.19 2.19 0 0 0 .9-2 2.19 2.19 0 0 0-.92-1.96z" fill="#2684bd"/><path d="M37.24 41.58c-.15-.33-.09-.52.3-.55 2.52-.27 4.8-1.55 6.87-1.64A3.3 3.3 0 0 1 48 41.92a5.83 5.83 0 0 1-.91 5.2 13.72 13.72 0 0 1-8.78 5.41 2.78 2.78 0 0 1-1.88-.3c-.85 1.67-1.76 3.68-2.83 6.2-.12.3-.27.3-.49.09-.43-.46-.73-1.37-.27-3 .79-2.77 3.65-8.48 6.29-12.64a2.25 2.25 0 0 1-1.89-1.3zm9.48.61c-.64-1.67-3.68-.09-5.68.49A6.87 6.87 0 0 1 39.88 46c-.79 1.4-1.64 2.8-2.55 4.5 6.81-1.26 10.21-6.18 9.39-8.31zM55.17 47.33c.37-.24.61-.3.82-.06.58.64 1.31 2 .42 3a16.34 16.34 0 0 0-3.34 5c-.49 1.58-.12 2.77.76 2.8 1.19.06 2.64-1.82 3.62-4 .12-.24.3-.27.42 0a2.65 2.65 0 0 1-.15 1.88 4.59 4.59 0 0 1-4.07 3c-2.19-.09-3.07-2.1-2.31-4.38A18.8 18.8 0 0 1 55 49a6.6 6.6 0 0 1-3.56 1.16c-1.16 2.13-4.07 6.44-4.65 9.21-.06.27-.24.43-.52.15-.88-.91-.88-2.31-.06-3.86.7-1.34 2.74-4.19 3.86-5.81-1.73-1.12.91-4.71 2-4.74.94 0 .7 1.73-.06 3.65a7.2 7.2 0 0 0 3.16-1.43zM75.69 55.54c-1.22 2.1-3.62 3.56-6.35 4.65-1.7 4.07-4 9-6.35 9.91a1.28 1.28 0 0 1-1.73-.55 4 4 0 0 1-.7-3.8c.88-2.8 3.56-4.74 6.63-5.81 1.22-2.95 2.64-6.14 4-8.75a4.51 4.51 0 0 1-3 .91c-.61 2.58-2.49 5.71-4.77 6.44a3.28 3.28 0 0 1-3.86-1.28c-1.31-1.79-.85-4.47.52-6.84 1.22-2.07 3-3.86 4.8-4a2 2 0 0 1 2.1 1c.7 1 1.61 1.13 1.46 3.34a3.06 3.06 0 0 1-.09.52c1.85 0 3.68-2 5.26-4.38.27-.39.52-.55.76-.24.46.52.61 1.82-.09 3.34-.79 1.67-3 5.87-4.32 8.91a15.6 15.6 0 0 0 5.78-5.26c.15-.21.4-.24.49.06a2.76 2.76 0 0 1-.54 1.83zM64.17 48.7a11.4 11.4 0 0 0-2.34 2.89c-1.31 2.28-1.73 5.11-1 5.75s2.71-.37 4.19-3.1a14.29 14.29 0 0 0 1.13-2.64 3.56 3.56 0 0 1-1.98-2.9zm-2.31 19.72c.46.58 2.89-2.67 4.77-7.17-3.95 2.25-5.32 6.47-4.77 7.17zm4.71-19.72c-.12-1-.76-.82-.91.09a2.36 2.36 0 0 0 .73 2 6.13 6.13 0 0 0 .18-2.09zm9.88-2.34c-.43.46-1.22.3-1.7-.46a1.8 1.8 0 0 1 .15-2.25c.49-.46 1.37-.18 1.73.7a2.05 2.05 0 0 1-.18 2.01zM80.7 57.94c2.52.12 4.74-2.31 6-4.32.15-.24.39-.24.52 0a2.47 2.47 0 0 1-.52 1.88 7.7 7.7 0 0 1-6 3.28c-3.86.06-5.2-3.74-3.22-7.66s5.08-5.5 6.6-4.62A5.66 5.66 0 0 1 86 48.12c.55.73.3 2.58-1 4.13-1.49 1.82-3.53 2.61-5.65.88-.99 2.8-.26 4.71 1.35 4.81zm2.52-7c1-1.28 1.64-2.86 1.22-3.19-.64-.52-3.16 1.31-4.59 4.19-.09.18-.18.36-.24.52 1.49.95 2.74-.36 3.62-1.51zM97 48.27c.64 1.28-.58 2.89-1.18 4.53-.12.37-.24.46-.64.24-.73-.36-1.16-1.28-.73-2.64.33-1.09 1.25-2.4.82-2.74s-2.8 1.52-4.16 4.29c-1.67 3.43-1 6 .76 6 2.55 0 4.74-2.4 6-4.32.15-.24.43-.27.55 0a2.75 2.75 0 0 1-.55 1.82A7.59 7.59 0 0 1 92 58.76c-3.86.06-5.17-3.71-3.19-7.63s5-5.47 6.54-4.56a4 4 0 0 1 1.65 1.7zM100.58 45.72c-.3-.43-.12-.64.33-.61a17.39 17.39 0 0 0 2.52-.12 39 39 0 0 1 2.31-3.77c.27-.4.58-.37.73 0a4.15 4.15 0 0 1-.39 3.43 1.9 1.9 0 0 1 1.88.91c.21.37.09.58-.37.58a9.06 9.06 0 0 0-2.37.12c-1.19 2-2.92 5-4.07 7.54-1 2.22-.67 4.1.61 4.17s3.1-2.1 4.22-4.38c.18-.37.52-.43.64 0a2.54 2.54 0 0 1-.3 1.73c-.4.88-2.4 3.56-4.83 3.46-2-.06-3.62-2.31-2.16-5.81.64-1.52 1.92-4.07 3.22-6.47a2.51 2.51 0 0 1-1.97-.78zM130.09 52c-2.46 4.53-6.29 8.08-10.43 6.57-2.49-.91-3.46-3.19-3.46-5.68 0-6.47 5.68-12.1 9.12-13.31a3.88 3.88 0 0 1 4.13.61c3.78 1.64 2.92 7.62.64 11.81zm-1.25-11.09c-1.49-.55-5.35 1.52-8.21 6s-3 9.67-.91 10.55 5.59-1.58 8.15-6.26c2.77-5.12 2.65-9.68.98-10.29zM142.13 46.42a2.2 2.2 0 0 1 1.19 3.22c-.64 1.34-2.13 3.59-2.83 5.17-.79 1.76-.61 3.19.49 3.13 1.25-.06 2.74-2.07 3.89-4.19.15-.27.36-.27.52 0a2.23 2.23 0 0 1-.27 1.92c-.82 1.7-2.74 3.25-4.5 3.25-2.58 0-3.19-1.88-2.31-4.53 1-3 3.68-6.2 3.13-6.44-.3-.12-2.07.73-4 2.86-1.79 1.95-3.13 4.86-4.44 7.72-.12.27-.3.39-.58.12-.61-.61-.79-1.61-.3-3.13a48.2 48.2 0 0 1 4.86-9c.21-.33.46-.3.64 0a3.6 3.6 0 0 1 .09 2.89c1.35-1.47 3.42-3.15 4.42-2.99zM150.19 57.94c2.52.12 4.74-2.31 6-4.32.15-.24.4-.24.52 0a2.47 2.47 0 0 1-.52 1.88 7.7 7.7 0 0 1-6 3.28c-3.86.06-5.2-3.74-3.22-7.66s5.08-5.5 6.6-4.62a5.66 5.66 0 0 1 1.79 1.58c.55.73.3 2.58-1 4.13-1.49 1.82-3.53 2.61-5.65.88-.86 2.84-.14 4.75 1.48 4.85zm2.52-7c1-1.28 1.64-2.86 1.21-3.19-.64-.52-3.16 1.31-4.59 4.19-.09.18-.18.36-.24.52 1.49.95 2.74-.36 3.62-1.51z" fill="#aed7ef"/><path fill="red" stroke="#aed7ef" stroke-miterlimit="10" stroke-width="2" d="M0 49.7h20.48M170 50.7h20.48"/></svg>